HIERARCHY
ROOT hip
{
  OFFSET 0 0 0
  CHANNELS 6 Xposition Yposition Zposition Zrotation Yrotation Xrotation
  JOINT abdomen
  {
    OFFSET 0 20.6881 -0.73152
    CHANNELS 3 Zrotation Xrotation Yrotation
    JOINT chest
    {
      OFFSET 0 11.7043 -0.48768
      CHANNELS 3 Zrotation Xrotation Yrotation
      JOINT neck
      {
        OFFSET 0 22.1894 -2.19456
        CHANNELS 3 Zrotation Xrotation Yrotation
        JOINT head
        {
          OFFSET -0.24384 7.07133 1.2192
          CHANNELS 3 Zrotation Xrotation Yrotation
          JOINT leftEye
          {
            OFFSET 4.14528 8.04674 8.04672
            CHANNELS 3 Zrotation Xrotation Yrotation
            End Site
            {
              OFFSET 1 0 0
            }
          }
          JOINT rightEye
          {
            OFFSET -3.6576 8.04674 8.04672
            CHANNELS 3 Zrotation Xrotation Yrotation
            End Site
            {
              OFFSET 1 0 0
            }
          }
        }
      }
      JOINT rCollar
      {
        OFFSET -2.68224 19.2634 -4.8768
        CHANNELS 3 Zrotation Xrotation Yrotation
        JOINT rShldr
        {
          OFFSET -8.77824 -1.95073 1.46304
          CHANNELS 3 Zrotation Xrotation Yrotation
          JOINT rForeArm
          {
            OFFSET -28.1742 -1.7115 0.48768
            CHANNELS 3 Zrotation Xrotation Yrotation
            JOINT rHand
            {
              OFFSET -22.5879 0.773209 7.07136
              CHANNELS 3 Zrotation Xrotation Yrotation
              JOINT rThumb1
              {
                OFFSET -1.2192 -0.487915 3.41376
                CHANNELS 3 Zrotation Xrotation Yrotation
                JOINT rThumb2
                {
                  OFFSET -3.37035 -0.52449 3.41376
                  CHANNELS 3 Zrotation Xrotation Yrotation
                  End Site
                  {
                    OFFSET -1.78271 -1.18214 1.43049
                  }
                }
              }
              JOINT rIndex1
              {
                OFFSET -7.75947 0.938293 5.60832
                CHANNELS 3 Zrotation Xrotation Yrotation
                JOINT rIndex2
                {
                  OFFSET -2.54057 -0.884171 1.56538
                  CHANNELS 3 Zrotation Xrotation Yrotation
                  End Site
                  {
                    OFFSET -1.62519 -0.234802 1.16502
                  }
                }
              }
              JOINT rMid1
              {
                OFFSET -8.24714 1.18213 3.41376
                CHANNELS 3 Zrotation Xrotation Yrotation
                JOINT rMid2
                {
                  OFFSET -3.10165 -0.590103 1.0647
                  CHANNELS 3 Zrotation Xrotation Yrotation
                  End Site
                  {
                    OFFSET -2.48547 -0.328903 0.83742
                  }
                }
              }
              JOINT rRing1
              {
                OFFSET -8.82822 0.546677 1.51678
                CHANNELS 3 Zrotation Xrotation Yrotation
                JOINT rRing2
                {
                  OFFSET -2.60934 -0.819778 -0.0198488
                  CHANNELS 3 Zrotation Xrotation Yrotation
                  End Site
                  {
                    OFFSET -2.33842 -0.294052 0.168128
                  }
                }
              }
              JOINT rPinky1
              {
                OFFSET -8.27202 -0.0477905 -0.4584
                CHANNELS 3 Zrotation Xrotation Yrotation
                JOINT rPinky2
                {
                  OFFSET -1.82734 -0.647385 -0.700984
                  CHANNELS 3 Zrotation Xrotation Yrotation
                  End Site
                  {
                    OFFSET -1.69225 -0.51767 -0.607171
                  }
                }
              }
            }
          }
        }
      }
      JOINT lCollar
      {
        OFFSET 2.68224 19.2634 -4.8768
        CHANNELS 3 Zrotation Xrotation Yrotation
        JOINT lShldr
        {
          OFFSET 8.77824 -1.95073 1.46304
          CHANNELS 3 Zrotation Xrotation Yrotation
          JOINT lForeArm
          {
            OFFSET 28.1742 -1.7115 0.48768
            CHANNELS 3 Zrotation Xrotation Yrotation
            JOINT lHand
            {
              OFFSET 22.5879 0.773209 7.07136
              CHANNELS 3 Zrotation Xrotation Yrotation
              JOINT lThumb1
              {
                OFFSET 1.2192 -0.487915 3.41376
                CHANNELS 3 Zrotation Xrotation Yrotation
                JOINT lThumb2
                {
                  OFFSET 3.37035 -0.52449 3.41376
                  CHANNELS 3 Zrotation Xrotation Yrotation
                  End Site
                  {
                    OFFSET 1.78271 -1.18214 1.43049
                  }
                }
              }
              JOINT lIndex1
              {
                OFFSET 7.75947 0.938293 5.60832
                CHANNELS 3 Zrotation Xrotation Yrotation
                JOINT lIndex2
                {
                  OFFSET 2.54057 -0.884171 1.56538
                  CHANNELS 3 Zrotation Xrotation Yrotation
                  End Site
                  {
                    OFFSET 1.62519 -0.234802 1.16502
                  }
                }
              }
              JOINT lMid1
              {
                OFFSET 8.24714 1.18213 3.41376
                CHANNELS 3 Zrotation Xrotation Yrotation
                JOINT lMid2
                {
                  OFFSET 3.10165 -0.590103 1.0647
                  CHANNELS 3 Zrotation Xrotation Yrotation
                  End Site
                  {
                    OFFSET 2.48547 -0.328903 0.83742
                  }
                }
              }
              JOINT lRing1
              {
                OFFSET 8.82822 0.546677 1.51678
                CHANNELS 3 Zrotation Xrotation Yrotation
                JOINT lRing2
                {
                  OFFSET 2.60934 -0.819778 -0.0198488
                  CHANNELS 3 Zrotation Xrotation Yrotation
                  End Site
                  {
                    OFFSET 2.33842 -0.294052 0.168128
                  }
                }
              }
              JOINT lPinky1
              {
                OFFSET 8.27202 -0.0477905 -0.4584
                CHANNELS 3 Zrotation Xrotation Yrotation
                JOINT lPinky2
                {
                  OFFSET 1.82734 -0.647385 -0.700984
                  CHANNELS 3 Zrotation Xrotation Yrotation
                  End Site
                  {
                    OFFSET 1.69225 -0.51767 -0.607171
                  }
                }
              }
            }
          }
        }
      }
    }
  }
  JOINT rButtock
  {
    OFFSET -8.77824 4.35084 1.2192
    CHANNELS 3 Zrotation Xrotation Yrotation
    JOINT rThigh
    {
      OFFSET 0 -1.70687 -2.19456
      CHANNELS 3 Zrotation Xrotation Yrotation
      JOINT rShin
      {
        OFFSET 0 -36.8199 0.73152
        CHANNELS 3 Zrotation Xrotation Yrotation
        JOINT rFoot
        {
          OFFSET 0.73152 -45.1104 -5.12064
          CHANNELS 3 Zrotation Xrotation Yrotation
          End Site
          {
            OFFSET -1.1221 -3.69964 12.103
          }
        }
      }
    }
  }
  JOINT lButtock
  {
    OFFSET 8.77824 4.35084 1.2192
    CHANNELS 3 Zrotation Xrotation Yrotation
    JOINT lThigh
    {
      OFFSET 0 -1.70687 -2.19456
      CHANNELS 3 Zrotation Xrotation Yrotation
      JOINT lShin
      {
        OFFSET 0 -36.8199 0.73152
        CHANNELS 3 Zrotation Xrotation Yrotation
        JOINT lFoot
        {
          OFFSET -0.73152 -45.1104 -5.12064
          CHANNELS 3 Zrotation Xrotation Yrotation
          End Site
          {
            OFFSET 1.1221 -3.69964 12.103
          }
        }
      }
    }
  }
}
MOTION
Frames:	4
Frame Time:	0.03333
12.2305 1.4045 -71.5685 -132.151419 29.109151 155.89765 -165.353517 -56.107496 45.848435 131.215334 25.836123 155.216792 57.915453 -17.039975 133.646797 -105.508613 28.54303 151.346042 142.03621 12.379781 -35.000483 2.764989 0.408912 16.821751 60.811516 -45.077236 -138.095714 90.018712 -39.805789 -39.63963 178.301522 -42.704236 -1.557899 92.500255 -15.130445 176.276678 117.486815 -53.80195 21.57686 174.546202 -13.986971 -4.328803 -25.063028 -25.590877 -157.383478 15.703146 39.377435 179.699174 -85.357429 -4.859724 -158.98889 -118.422811 22.915989 153.867427 -136.701155 11.186724 -5.225752 -81.685654 -40.759595 139.183657 -121.127836 -30.881145 66.503148 -108.14998 -18.679333 73.469165 -52.32094 86.338345 -101.577974 -18.644452 -27.906144 -113.167969 -127.842772 -15.8852 -14.74728 71.74302 4.169446 -179.27465 -71.337282 66.304259 166.61626 -118.461584 -46.59815 -156.94616 -147.15231 -21.044676 131.589343 -89.905582 19.317049 123.109495 -152.316269 -48.563988 9.997906 107.20042 -60.538084 -42.413195 96.02132 44.047802 96.004253 -0.836878 -60.683454 -162.894565 113.928589 -47.576485 -52.864946 91.72236 -40.538049 -146.455193 80.514806 -77.624232 -83.56122 -152.994098 -53.379125 -104.633974 -166.867295 -14.984908 -46.981166 97.343368 -44.436849 -12.99872 -89.498425 14.317869 -115.950003 -50.219346 -41.276738 -144.589315 -142.525979 66.229423 112.361109 149.260898 -8.528469 -144.819808
12.4658 1.3861 -72.9472 -131.202064 27.495814 157.183531 -158.454845 -59.057997 -155.281881 -147.562825 -40.436997 -53.810358 40.507436 -28.627248 -38.987412 96.315591 -46.076325 -49.610511 142.295566 12.325304 -35.097064 2.73337 0.397449 16.543318 168.535875 -18.806613 -39.398425 156.730343 -6.399542 52.094656 90.064365 83.504404 58.329937 111.935586 42.375174 -58.148959 -67.384881 38.778229 72.129717 170.509927 61.303966 -159.385687 -24.446044 -25.6048 -156.341929 33.419084 15.036273 175.350419 -25.859927 -41.28381 -119.806624 -70.448489 31.147753 90.855271 -138.442175 -3.786086 -9.464391 -60.835607 -18.771923 159.791085 117.250061 20.234586 128.205124 78.117413 -33.048897 -100.568515 1.759378 -12.047037 177.865193 80.104344 13.962437 40.146656 -160.895611 53.848277 -70.980621 90.848709 11.808015 140.691432 163.299912 -55.976697 152.93893 -52.752696 32.066336 54.42986 -170.446831 -21.986382 116.298788 15.15849 -16.1262 127.582397 9.6031 24.06231 -140.75483 -161.45011 17.141744 79.247539 6.898117 12.50343 116.44306 158.316822 1.160647 -6.278325 124.393031 -34.345588 -51.249551 -147.730777 -32.893137 -89.062674 81.956572 -78.140966 -82.718002 -154.01008 -54.443337 -180.0 166.746296 -16.996467 -110.111233 -99.636401 16.57109 32.853507 7.809759 2.090214 104.891613 108.355643 -2.893325 -89.040504 -133.426719 52.455818 31.809429 109.826973 36.904853 163.876638
12.6979 1.3884 -74.3149 -131.642086 28.018235 156.493854 -159.390657 -59.173683 -156.349939 -147.424697 -40.930733 -53.891359 55.147675 -30.154146 48.200834 -91.520704 -54.631151 136.698062 142.151642 12.174609 -34.557276 2.621185 0.386236 16.761814 -168.149293 33.303445 -29.294463 19.430508 -38.314965 119.84679 -154.858802 -1.375237 -16.575002 54.383056 15.873931 86.403502 116.624955 -54.002063 20.113563 43.611153 -11.924083 106.748512 4.953076 -37.031075 -132.605706 -174.796269 -20.900212 -81.002548 -113.150424 30.288973 -161.394824 -110.824646 -50.411698 -158.8397 135.422731 -63.127024 -104.144785 121.911495 1.789071 -74.895328 -123.083339 -29.081658 66.473298 -67.534317 -43.052445 80.71007 2.90294 -8.240595 178.983479 69.366701 29.226257 39.925061 -139.03023 69.88179 -95.564258 90.222288 12.173373 141.559525 20.920379 57.653318 86.169253 -58.949938 -45.566711 -118.29718 117.386152 13.664905 81.35997 -84.608909 -85.125729 82.158978 -63.351613 65.937258 -69.837338 47.688943 42.265922 97.582669 94.885257 43.264248 96.689691 -19.815989 14.955169 -160.268363 -131.050171 35.705704 -122.885322 112.788066 57.434755 -32.942572 155.272292 -87.731976 0.0 -154.44081 -50.128155 -148.071498 172.848049 -20.866248 -83.989712 166.631014 -58.446241 43.240265 -94.280381 1.11769 -103.992642 -72.009716 -30.459302 99.347925 -126.447312 -29.046028 -72.817357 6.913551 66.748262 -110.751543
12.93 1.405 -75.689 -132.890253 29.796282 154.788909 -166.670407 -55.907157 43.226614 130.804956 27.414137 154.368787 56.857975 -28.897055 60.709142 -92.829672 -43.250333 137.41432 141.767113 12.043608 -33.855417 2.509669 0.380814 17.253678 155.633031 -35.886462 -50.459903 -83.581016 -42.909804 126.261942 -74.124166 66.929709 -125.677881 53.768951 24.917362 72.955526 -75.030006 35.146182 76.729865 55.22552 45.247284 -80.64338 -8.487645 -34.832035 -144.26846 172.36116 -34.190814 -88.074199 -25.809809 -41.289115 -119.859644 -100.763128 15.240036 108.172757 103.821762 78.306603 137.485658 121.676353 10.406517 113.237921 -175.040355 12.780547 82.817523 93.118011 44.983941 -176.572365 -143.206118 -28.472818 26.508945 60.465539 -5.203135 171.422352 -161.452532 37.391791 -65.852715 88.400165 12.597927 144.596212 -160.164896 -39.82657 -176.478118 -9.366795 7.040933 81.241463 -101.715451 -2.069579 156.340238 -71.856417 44.267135 160.832717 -126.959727 38.177672 -7.55122 -64.119701 25.779813 -178.147813 95.860877 44.23616 95.560717 90.754832 -83.916197 -76.551357 117.56241 -43.605906 -51.739165 -121.569192 -24.627641 -72.48651 128.142366 10.497917 -153.644166 153.897255 -59.999588 150.500862 -159.52422 19.725585 169.020026 89.409599 23.295843 -166.14002 -94.621591 1.089588 -103.994874 -68.46516 -30.416083 -0.0 132.048001 -47.202472 26.165421 138.021729 -11.687581 -25.54422
